solid box
  facet normal 0 0 0
    outer loop
      vertex 0.000 0.000 0.000
      vertex 12.000 0.000 0.000
      vertex 12.000 10.000 0.000
    endloop
  endfacet
  facet normal 0 0 0
    outer loop
      vertex 0.000 0.000 0.000
      vertex 12.000 10.000 0.000
      vertex 0.000 10.000 0.000
    endloop
  endfacet
  facet normal 0 0 0
    outer loop
      vertex 0.000 0.000 20.000
      vertex 0.000 10.000 20.000
      vertex 12.000 10.000 20.000
    endloop
  endfacet
  facet normal 0 0 0
    outer loop
      vertex 0.000 0.000 20.000
      vertex 12.000 10.000 20.000
      vertex 12.000 0.000 20.000
    endloop
  endfacet
  facet normal 0 0 0
    outer loop
      vertex 0.000 0.000 0.000
      vertex 0.000 0.000 20.000
      vertex 12.000 0.000 20.000
    endloop
  endfacet
  facet normal 0 0 0
    outer loop
      vertex 0.000 0.000 0.000
      vertex 12.000 0.000 20.000
      vertex 12.000 0.000 0.000
    endloop
  endfacet
  facet normal 0 0 0
    outer loop
      vertex 0.000 10.000 0.000
      vertex 12.000 10.000 0.000
      vertex 12.000 10.000 20.000
    endloop
  endfacet
  facet normal 0 0 0
    outer loop
      vertex 0.000 10.000 0.000
      vertex 12.000 10.000 20.000
      vertex 0.000 10.000 20.000
    endloop
  endfacet
  facet normal 0 0 0
    outer loop
      vertex 0.000 0.000 0.000
      vertex 0.000 10.000 0.000
      vertex 0.000 10.000 20.000
    endloop
  endfacet
  facet normal 0 0 0
    outer loop
      vertex 0.000 0.000 0.000
      vertex 0.000 10.000 20.000
      vertex 0.000 0.000 20.000
    endloop
  endfacet
  facet normal 0 0 0
    outer loop
      vertex 12.000 0.000 0.000
      vertex 12.000 0.000 20.000
      vertex 12.000 10.000 20.000
    endloop
  endfacet
  facet normal 0 0 0
    outer loop
      vertex 12.000 0.000 0.000
      vertex 12.000 10.000 20.000
      vertex 12.000 10.000 0.000
    endloop
  endfacet
endsolid box
